<?xml version="1.0" encoding="utf-8"?>
<svg width="324px" height="324px" viewBox="0 0 324 324" version="1.1" xmlns:xlink="http://www.w3.org/1999/xlink" xmlns="http://www.w3.org/2000/svg">
  <path d="M110.228 40.8052C124.054 34.957 138.428 31.5625 153.35 30.6211L153.35 8.5C153.35 6.15283 154.179 4.14941 155.839 2.48975C157.499 0.830078 159.502 0.000488281 161.85 0C164.197 0.000488281 166.2 0.830078 167.86 2.48975C169.52 4.14941 170.349 6.15283 170.35 8.5L170.35 30.6025C185.378 31.5171 199.852 34.918 213.772 40.8052C229.683 47.5352 243.774 57.0352 256.045 69.3052C268.314 81.5732 277.813 95.6645 284.545 111.578C290.217 124.986 293.581 138.91 294.637 153.35L315.2 153.35C317.547 153.351 319.55 154.18 321.21 155.84C322.87 157.5 323.7 159.503 323.7 161.85C323.7 164.197 322.87 166.201 321.21 167.861C319.55 169.52 317.547 170.35 315.2 170.35L294.823 170.35C294.034 185.863 290.608 200.787 284.544 215.122C277.813 231.037 268.314 245.127 256.045 257.395C243.774 269.665 229.683 279.165 213.772 285.895C199.853 291.782 185.379 295.183 170.35 296.098L170.35 315.2C170.35 317.547 169.52 319.551 167.86 321.21C166.2 322.87 164.197 323.7 161.85 323.7C159.502 323.7 157.499 322.87 155.839 321.21C154.179 319.551 153.35 317.547 153.35 315.2L153.35 296.079C138.429 295.138 124.054 291.743 110.228 285.895C94.3169 279.166 80.2258 269.666 67.9543 257.395C55.6855 245.127 46.1855 231.036 39.4548 215.122C33.3914 200.787 29.9653 185.863 29.1768 170.35L8.5 170.35C6.15259 170.35 4.14917 169.52 2.48926 167.861C0.829834 166.201 0 164.197 0 161.85C0 159.503 0.829834 157.5 2.48926 155.84C4.14917 154.18 6.15259 153.351 8.5 153.35L29.3628 153.35C30.4197 138.911 33.7837 124.987 39.4551 111.578C46.186 95.6636 55.6858 81.5728 67.9543 69.3052C80.2256 57.0352 94.3167 47.5352 110.228 40.8052L110.228 40.8052ZM153.35 67.5L153.35 47.6611C140.727 48.5762 128.56 51.5098 116.85 56.4624C102.974 62.3311 90.6826 70.6187 79.9753 81.3257C69.27 92.0303 60.9822 104.322 55.1123 118.2C50.3362 129.492 47.4375 141.209 46.4163 153.35L67.5 153.35C69.8472 153.351 71.8506 154.18 73.51 155.84C75.1699 157.5 76 159.503 76 161.85C76 164.197 75.1699 166.201 73.51 167.861C71.8506 169.521 69.8472 170.35 67.5 170.35L46.2026 170.35C46.9736 183.564 49.9436 196.281 55.1121 208.5C60.9819 222.378 69.2695 234.67 79.9753 245.375C90.6824 256.082 102.974 264.369 116.85 270.238C128.561 275.19 140.727 278.125 153.35 279.039L153.35 256.2C153.35 253.853 154.179 251.849 155.839 250.189C157.499 248.53 159.502 247.7 161.85 247.7C164.197 247.7 166.2 248.53 167.86 250.189C169.52 251.849 170.35 253.853 170.35 256.2L170.35 279.061C183.08 278.17 195.347 275.229 207.149 270.238C221.025 264.369 233.317 256.082 244.024 245.375C254.73 234.67 263.017 222.378 268.887 208.5C274.055 196.281 277.025 183.564 277.797 170.35L256.2 170.35C253.853 170.35 251.849 169.521 250.189 167.861C248.53 166.201 247.7 164.197 247.7 161.85C247.7 159.503 248.53 157.5 250.189 155.84C251.849 154.18 253.853 153.351 256.2 153.35L277.583 153.35C276.562 141.208 273.663 129.492 268.887 118.2C263.018 104.322 254.73 92.0308 244.024 81.3257C233.317 70.6191 221.025 62.3315 207.149 56.4624C195.346 51.4707 183.08 48.5298 170.35 47.6396L170.35 67.5C170.349 69.8472 169.52 71.8511 167.86 73.5107C166.2 75.1704 164.197 76 161.85 76C159.502 76 157.499 75.1704 155.839 73.5107C154.179 71.8511 153.35 69.8472 153.35 67.5L153.35 67.5ZM170.8 170.403L170.8 208.394C170.8 210.741 169.97 212.745 168.31 214.404C166.65 216.064 164.647 216.894 162.3 216.894C159.953 216.894 157.949 216.064 156.289 214.404C154.63 212.745 153.8 210.741 153.8 208.394L153.8 170.403L116.1 170.403C113.753 170.403 111.749 169.574 110.089 167.914C108.43 166.254 107.6 164.25 107.6 161.903C107.6 159.556 108.43 157.553 110.089 155.893C111.749 154.233 113.753 153.404 116.1 153.403L153.8 153.403L153.8 115.7C153.8 113.353 154.63 111.35 156.289 109.69C157.949 108.03 159.953 107.2 162.3 107.2C164.647 107.2 166.65 108.03 168.31 109.69C169.97 111.35 170.8 113.353 170.8 115.7L170.8 153.403L208.8 153.403C211.147 153.404 213.15 154.233 214.81 155.893C216.47 157.553 217.3 159.556 217.3 161.903C217.3 164.25 216.47 166.254 214.81 167.914C213.15 169.574 211.147 170.403 208.8 170.403L170.8 170.403L170.8 170.403Z" id="Vector" fill="#FFFFFF" fill-rule="evenodd" stroke="none" />
</svg>