<?xml version="1.0" encoding="utf-8"?>
<svg width="185px" height="241px" viewBox="0 0 185 241" version="1.1" xmlns:xlink="http://www.w3.org/1999/xlink" xmlns="http://www.w3.org/2000/svg">
  <defs>
    <linearGradient x1="0" y1="0" x2="0" y2="1" id="gradient_1">
      <stop offset="0" stop-color="#000000" stop-opacity="0.29803923" />
      <stop offset="1" stop-color="#000000" stop-opacity="0" />
    </linearGradient>
  </defs>
  <path d="M2.73535 0.650513L10.5742 12.0125L13.085 10.2543L13.4141 18.5695L5.71289 15.4165L8.11621 13.7334L0.265625 2.35413C0.152832 2.19043 0.0751953 2.01135 0.0336914 1.81689C-0.00830078 1.62231 -0.0112305 1.42725 0.0249023 1.23157C0.0605469 1.03589 0.132813 0.854614 0.240723 0.6875C0.348633 0.520508 0.484863 0.380615 0.648438 0.2677C0.989258 0.0324707 1.36328 -0.0477295 1.771 0.0270996C2.17822 0.101685 2.49951 0.30957 2.73535 0.650513L2.73535 0.650513Z" transform="translate(102.8999 146.99768)" id="Vector-shape" fill="#000000" fill-rule="evenodd" stroke="none" />
  <path d="M37.064 0.182129L5.63428 17.0337L4.06836 14.0883L0 21.3478L8.29346 22.0347L7.04297 19.6827L38.4819 2.82617C38.6572 2.7323 38.8076 2.6084 38.9336 2.45459C39.0601 2.30078 39.1519 2.12866 39.209 1.93811C39.2661 1.74768 39.2852 1.55347 39.2656 1.35547C39.2456 1.15747 39.189 0.970825 39.0947 0.79541C38.8984 0.430298 38.6021 0.187866 38.2061 0.0681152C37.8096 -0.0516357 37.4287 -0.0135498 37.064 0.182129L37.064 0.182129Z" transform="translate(71.51221 183.6958)" id="Vector-shape" fill="#000000" fill-rule="evenodd" stroke="none" />
  <path d="M0 13.5C0 6.04419 6.04395 0 13.5 0C20.9561 0 27 6.04419 27 13.5C27 20.9558 20.9561 27 13.5 27C6.04395 27 0 20.9558 0 13.5L0 13.5ZM12.646 8.93713L12.646 20.9252L15.562 20.9252L15.562 6.07507L10.4321 6.07507L10.4321 8.93713L12.646 8.93713L12.646 8.93713Z" transform="translate(79.3999 120.5)" id="Vector" fill="#000000" fill-rule="evenodd" stroke="none" />
  <path d="M0 13.5C0 6.04419 6.04395 0 13.5 0C20.9561 0 27 6.04419 27 13.5C27 20.9558 20.9561 27 13.5 27C6.04395 27 0 20.9558 0 13.5L0 13.5ZM7.59473 19.431L7.59473 20.925L18.9253 20.925L18.9253 18.333L12.9043 18.333C13.7446 17.7211 14.481 17.1436 15.1138 16.6005C15.7471 16.0575 16.2886 15.5385 16.7383 15.0435C17.1885 14.5485 17.5547 14.0656 17.8364 13.5945C18.1182 13.1234 18.3252 12.657 18.4575 12.1949C18.5894 11.7329 18.6553 11.262 18.6553 10.782C18.6553 9.82202 18.4229 8.96704 17.958 8.21704C17.4927 7.46704 16.8525 6.87451 16.0366 6.43945C15.2207 6.00452 14.2876 5.78699 13.2373 5.78699C12.5474 5.78699 11.9058 5.88904 11.3115 6.09302C10.7173 6.297 10.1821 6.59106 9.70508 6.97498C9.22803 7.35901 8.81982 7.82251 8.48096 8.36548C8.14209 8.90857 7.88281 9.51904 7.70264 10.197L10.1504 11.34C10.3364 10.704 10.5708 10.167 10.8525 9.729C11.1343 9.29102 11.4629 8.95947 11.8379 8.7345C12.2129 8.50952 12.6226 8.39697 13.0664 8.39697C13.5283 8.39697 13.9438 8.50793 14.313 8.72998C14.6821 8.95203 14.9746 9.25049 15.1904 9.62549C15.4067 10.0005 15.5146 10.416 15.5146 10.8719C15.5146 11.238 15.4263 11.6265 15.249 12.0375C15.0718 12.4485 14.7915 12.8986 14.4077 13.3875C14.0234 13.8765 13.5225 14.418 12.9043 15.012C12.2866 15.606 11.5396 16.2675 10.6636 16.9965C9.7876 17.7255 8.76465 18.537 7.59473 19.431L7.59473 19.431Z" transform="translate(113.399414 164.5)" id="Vector" fill="#000000" fill-rule="evenodd" stroke="none" />
  <path d="M0 13.5C0 6.04419 6.04395 0 13.5 0C20.9561 0 27 6.04419 27 13.5C27 20.9558 20.9561 27 13.5 27C6.04395 27 0 20.9558 0 13.5L0 13.5ZM11.3213 20.7542C12.0596 21.0602 12.8726 21.2131 13.7603 21.2131C14.8105 21.2131 15.7329 21.0092 16.5278 20.6011C17.3232 20.1931 17.9429 19.6337 18.3867 18.9226C18.8306 18.2115 19.0522 17.4061 19.0522 16.5061C19.0522 15.9662 18.9712 15.4757 18.8096 15.0347C18.6475 14.5936 18.4136 14.2021 18.1074 13.8601C17.8013 13.5182 17.4385 13.2362 17.0186 13.0142C17.3423 12.7981 17.6187 12.54 17.8467 12.2401C18.0747 11.9402 18.25 11.6072 18.373 11.2411C18.4961 10.8751 18.5576 10.4822 18.5576 10.0621C18.5576 9.24609 18.3535 8.51868 17.9453 7.87964C17.5376 7.2406 16.978 6.73511 16.2671 6.36316C15.5562 5.99121 14.7476 5.80518 13.8413 5.80518C13.0674 5.80518 12.3521 5.9447 11.6948 6.22363C11.0381 6.50256 10.4844 6.89563 10.0347 7.40259C9.58447 7.90955 9.27539 8.49915 9.10742 9.17114L11.4204 10.2511C11.4805 9.84314 11.6211 9.48315 11.8433 9.17114C12.0654 8.85913 12.3457 8.61316 12.6851 8.43311C13.0239 8.25305 13.3916 8.16309 13.7876 8.16309C14.1836 8.16309 14.5405 8.25012 14.8584 8.42407C15.1763 8.59814 15.4302 8.83215 15.6191 9.1261C15.8081 9.42017 15.9023 9.75012 15.9023 10.1161C15.9023 10.488 15.8081 10.8361 15.6191 11.1602C15.4302 11.4841 15.1777 11.7437 14.8628 11.9386C14.5479 12.1335 14.1958 12.2311 13.8057 12.2311L13.1304 12.2311L13.1304 14.1752C13.3105 14.1031 13.5264 14.0671 13.7783 14.0671C14.2163 14.0671 14.6143 14.1736 14.9712 14.3866C15.3281 14.5996 15.6113 14.8906 15.8213 15.2596C16.0317 15.6287 16.1367 16.0471 16.1367 16.5151C16.1367 17.1691 15.9224 17.6941 15.4932 18.0901C15.064 18.4861 14.4897 18.6841 13.7695 18.6841C13.2534 18.6841 12.7988 18.5806 12.4058 18.3737C12.0127 18.1666 11.7041 17.8787 11.479 17.5096C11.2539 17.1406 11.1206 16.7162 11.0786 16.2361L8.37842 17.5142C8.58252 18.2642 8.93945 18.9152 9.44971 19.4672C9.95947 20.0192 10.5835 20.4481 11.3213 20.7542L11.3213 20.7542Z" transform="translate(42.399902 197.5)" id="Vector" fill="#000000" fill-rule="evenodd" stroke="none" />
  <path d="M3.499 0L27.6011 0Q27.773 0 27.9441 0.0168486Q28.1151 0.0336973 28.2837 0.0672323Q28.4523 0.100767 28.6168 0.150666Q28.7813 0.200564 28.9401 0.266345Q29.0989 0.332127 29.2505 0.413157Q29.4021 0.494188 29.545 0.589688Q29.688 0.685187 29.8208 0.794236Q29.9537 0.903285 30.0753 1.02483Q30.1968 1.14638 30.3059 1.27926Q30.4149 1.41213 30.5104 1.55506Q30.6059 1.69799 30.6869 1.84958Q30.768 2.00118 30.8337 2.15999Q30.8995 2.3188 30.9494 2.48329Q30.9993 2.64779 31.0329 2.81638Q31.0664 2.98497 31.0833 3.15604Q31.1001 3.32711 31.1001 3.499L31.1001 3.501Q31.1001 3.67289 31.0833 3.84396Q31.0664 4.01503 31.0329 4.18362Q30.9993 4.35221 30.9494 4.51671Q30.8995 4.6812 30.8337 4.84001Q30.768 4.99882 30.6869 5.15042Q30.6059 5.30202 30.5104 5.44494Q30.4149 5.58787 30.3059 5.72074Q30.1968 5.85362 30.0753 5.97517Q29.9537 6.09671 29.8208 6.20576Q29.688 6.31481 29.545 6.41031Q29.4021 6.50581 29.2505 6.58684Q29.0989 6.66787 28.9401 6.73365Q28.7813 6.79943 28.6168 6.84933Q28.4523 6.89923 28.2837 6.93277Q28.1151 6.9663 27.9441 6.98315Q27.773 7 27.6011 7L3.499 7Q3.32711 7 3.15604 6.98315Q2.98497 6.9663 2.81638 6.93277Q2.64779 6.89923 2.48329 6.84933Q2.3188 6.79943 2.15999 6.73365Q2.00118 6.66787 1.84958 6.58684Q1.69799 6.50581 1.55506 6.41031Q1.41213 6.31481 1.27926 6.20576Q1.14638 6.09671 1.02483 5.97517Q0.903285 5.85362 0.794236 5.72074Q0.685187 5.58786 0.589688 5.44494Q0.494188 5.30201 0.413157 5.15042Q0.332127 4.99882 0.266345 4.84001Q0.200564 4.6812 0.150666 4.51671Q0.100767 4.35221 0.0672323 4.18362Q0.0336973 4.01503 0.0168486 3.84396Q0 3.67289 0 3.501L0 3.499Q0 3.32711 0.0168486 3.15604Q0.0336973 2.98497 0.0672323 2.81638Q0.100767 2.64779 0.150666 2.48329Q0.200564 2.3188 0.266345 2.15999Q0.332127 2.00118 0.413157 1.84958Q0.494188 1.69799 0.589688 1.55506Q0.685187 1.41213 0.794236 1.27926Q0.903285 1.14638 1.02483 1.02483Q1.14638 0.903285 1.27926 0.794236Q1.41213 0.685187 1.55506 0.589688Q1.69799 0.494188 1.84958 0.413157Q2.00118 0.332127 2.15999 0.266345Q2.3188 0.200564 2.48329 0.150666Q2.64779 0.100767 2.81638 0.0672323Q2.98497 0.0336973 3.15604 0.0168486Q3.32711 0 3.499 0L3.499 0Z" transform="translate(77.5 5.5)" id="Rectangle-46" fill="#000000" fill-rule="evenodd" stroke="none" />
  <path d="M182 35L91 0L0 35L0 97L182 97L182 35L182 35Z" transform="translate(1.5 12.5)" id="Vector-shape" fill="url(#gradient_1)" fill-rule="evenodd" stroke="none" />
  <path d="M0 0L185 0L185 241L0 241L0 0L0 0ZM3 3L3 238L182 238L182 3L3 3L3 3Z" id="Vector" fill="#000000" fill-rule="evenodd" stroke="none" />
</svg>