<?xml version="1.0" encoding="utf-8"?>
<svg width="238px" height="216px" viewBox="0 0 238 216" version="1.1" xmlns:xlink="http://www.w3.org/1999/xlink" xmlns="http://www.w3.org/2000/svg">
  <path d="M24.999 0L91.001 0C97.9041 0 103.796 2.44092 108.678 7.32227C113.559 12.2036 116 18.0957 116 24.999L116 55.875C116 62.1514 113.93 67.6479 109.79 72.3652C105.649 77.0825 100.467 79.8486 94.2437 80.6626L94.2437 103.004L68.3367 80.874L24.999 80.874C18.0955 80.874 12.2031 78.4336 7.32178 73.5522C2.44043 68.6709 -0.000244141 62.7783 0 55.875L0 24.999C-0.000244141 18.0957 2.44043 12.2036 7.32178 7.32275C12.2031 2.44092 18.0955 0 24.999 0L24.999 0ZM141.458 42.7197C151.203 29.5439 166.854 21.0005 184.5 21.0005C214.047 21.0005 238 44.9531 238 74.5005C238 96.2759 224.991 115.013 206.321 123.363C220.886 135.312 230.841 158.854 231.002 186L171.321 186C170.201 181.726 168.827 177.562 167.197 173.507C164.388 166.519 161.022 160.34 157.098 154.974C162.518 150.708 167.209 145.579 171.172 139.584C178.39 128.665 182 116.637 182 103.5C182 85.4131 175.605 69.9746 162.815 57.1851C156.369 50.7388 149.25 45.917 141.458 42.7197L141.458 42.7197ZM64.21 93.1309C63.417 96.7949 62.9995 100.599 62.9995 104.5C62.9995 126.276 76.01 145.014 94.6819 153.364C80.1167 165.313 70.1631 188.854 70.0017 216L163.002 216C162.84 188.853 152.886 165.312 138.32 153.362C156.99 145.012 170 126.275 170 104.5C170 78.9009 152.02 57.501 128 52.2393L128 55.875C128 65.1641 124.936 73.2993 118.809 80.2808C115.165 84.4316 110.977 87.562 106.244 89.6709L106.244 103.004C106.243 106.318 105.072 109.147 102.729 111.49C100.385 113.833 97.5571 115.004 94.2437 115.004C92.8149 115.004 91.4304 114.757 90.0901 114.262C88.7495 113.768 87.5359 113.057 86.4495 112.128L64.21 93.1309L64.21 93.1309Z" id="Vector" fill="#FFFFFF" fill-rule="evenodd" stroke="none" />
</svg>