<?xml version="1.0" encoding="utf-8"?>
<svg width="92px" height="124px" viewBox="0 0 92 124" version="1.1" xmlns:xlink="http://www.w3.org/1999/xlink" xmlns="http://www.w3.org/2000/svg">
  <path d="M37.2256 0L47.832 10.6066L91.436 54.2104L91.436 116.001C91.4365 117.062 91.2334 118.082 90.8272 119.062C90.4214 120.042 89.8438 120.907 89.0933 121.657C88.3438 122.407 87.4785 122.985 86.4985 123.391C85.5186 123.797 84.498 124 83.437 124L7.99902 124C5.79053 124 3.90479 123.219 2.34277 121.657C0.781738 120.095 0.000488281 118.21 0 116.001L0 7.99902C0.000488281 6.93835 0.203613 5.91797 0.609375 4.93799C1.01514 3.95813 1.59277 3.09302 2.34277 2.3429C3.09326 1.5929 3.95801 1.01489 4.93799 0.609009C5.91797 0.203125 6.93848 0.00012207 7.99902 0L37.2256 0L37.2256 0ZM57.4385 0L91.4077 33.9692L91.4077 7.99902C91.4082 5.79016 90.6274 3.90478 89.0659 2.3429C87.5039 0.781006 85.6182 0.00012207 83.4087 0L57.4385 0L57.4385 0Z" id="Vector" fill="#FFFFFF" fill-rule="evenodd" stroke="none" />
</svg>