<?xml version="1.0" encoding="utf-8"?>
<svg width="39px" height="41px" viewbox="0 0 39 41" version="1.1" xmlns:xlink="http://www.w3.org/1999/xlink" xmlns="http://www.w3.org/2000/svg">
  <path d="M16.0964 3.33905C16.0963 2.41699 16.4224 1.62994 17.0744 0.977966C17.7264 0.325989 18.5135 0 19.4356 0C20.3577 0 21.1447 0.325989 21.7966 0.977966C22.4487 1.62994 22.7747 2.41699 22.7747 3.33905L22.7747 13.4637L27.0556 13.4637L19.4355 22.2609L11.8154 13.4637L16.0964 13.4637L16.0964 3.33905L16.0964 3.33905ZM0.0134277 26.5023C0.0298157 26.363 0.0579529 26.2243 0.0978394 26.0862L3.88019 12.9863C4.03888 12.4368 4.3468 11.99 4.80399 11.6461C5.2612 11.3023 5.77582 11.1304 6.3479 11.1304L6.84921 11.1304L3.52881 25.6L35.3557 25.6L32.0352 11.1304L32.5366 11.1304C33.1086 11.1304 33.6232 11.3023 34.0804 11.6461C34.5376 11.99 34.8455 12.4368 35.0042 12.9863L38.7866 26.0862C38.8264 26.2243 38.8546 26.363 38.871 26.5023C38.8662 26.5536 38.8683 27.1529 38.8698 27.6009L38.8698 27.6063L38.8698 27.6096L38.8699 27.6304L38.8699 27.6334C38.8705 27.8044 38.871 27.9499 38.871 28.0289L38.871 38.0688C38.871 38.7395 38.6308 39.312 38.1505 39.7863C37.6701 40.2605 37.0902 40.4977 36.4109 40.4977L2.46011 40.4977C1.78076 40.4977 1.2009 40.2605 0.72052 39.7863C0.240173 39.312 -3.05147e-05 38.7395 0 38.0688L0 28.0289C0 27.907 0.00341797 27.6383 0.00698853 27.3595L0.00701905 27.3564L0.0071106 27.3489L0.00717163 27.3448L0.0072937 27.3361C0.0122376 26.9457 0.0173035 26.5441 0.0134277 26.5023L0.0134277 26.5023ZM27.5542 33.0894C27.5542 31.0995 29.188 29.4865 31.2035 29.4865C33.2189 29.4865 34.8528 31.0995 34.8528 33.0894C34.8528 35.0793 33.2189 36.6924 31.2035 36.6924C29.188 36.6924 27.5542 35.0793 27.5542 33.0894L27.5542 33.0894Z" id="Vector-10" fill="#FFFFFF" fill-rule="evenodd" stroke="none" />
</svg>