<?xml version="1.0" encoding="UTF-8" standalone="no"?>
<svg
   xmlns:dc="http://purl.org/dc/elements/1.1/"
   xmlns:cc="http://creativecommons.org/ns#"
   xmlns:rdf="http://www.w3.org/1999/02/22-rdf-syntax-ns#"
   xmlns:svg="http://www.w3.org/2000/svg"
   xmlns="http://www.w3.org/2000/svg"
   xmlns:sodipodi="http://sodipodi.sourceforge.net/DTD/sodipodi-0.dtd"
   xmlns:inkscape="http://www.inkscape.org/namespaces/inkscape"
   version="1.0"
   width="14.453208mm"
   height="34.951515mm"
   id="svg838"
   sodipodi:docname="fbt-man.svg"
   inkscape:version="0.92.4 (5da689c313, 2019-01-14)">
  <metadata
     id="metadata842">
    <rdf:RDF>
      <cc:Work
         rdf:about="">
        <dc:format>image/svg+xml</dc:format>
        <dc:type
           rdf:resource="http://purl.org/dc/dcmitype/StillImage" />
        <dc:title></dc:title>
      </cc:Work>
    </rdf:RDF>
  </metadata>
  <sodipodi:namedview
     pagecolor="#ffffff"
     bordercolor="#666666"
     borderopacity="1"
     objecttolerance="10"
     gridtolerance="10"
     guidetolerance="10"
     inkscape:pageopacity="0"
     inkscape:pageshadow="2"
     inkscape:window-width="1920"
     inkscape:window-height="1017"
     id="namedview840"
     showgrid="false"
     inkscape:zoom="1.590411"
     inkscape:cx="352.46827"
     inkscape:cy="-59.809854"
     inkscape:window-x="1912"
     inkscape:window-y="-8"
     inkscape:window-maximized="1"
     inkscape:current-layer="svg838" />
  <defs
     id="defs816">
    <pattern
       id="EMFhbasepattern"
       patternUnits="userSpaceOnUse"
       width="6"
       height="6"
       x="0"
       y="0" />
  </defs>
  <path
     style="fill:#ffff00;fill-opacity:1;fill-rule:evenodd;stroke:none"
     d="m 21.546643,81.490612 c 0,-3.03815 2.4785,-5.49666 5.49667,-5.49666 3.03816,0 5.49667,2.45851 5.49667,5.49666 0,3.03816 -2.45851,5.49667 -5.49667,5.49667 -3.01817,0 -5.49667,-2.45851 -5.49667,-5.49667 z"
     id="path820"
     inkscape:connector-curvature="0" />
  <path
     style="fill:#ffff00;fill-opacity:1;fill-rule:evenodd;stroke:none"
     d="m 3.0778431,125.36402 c 0,-3.03815 2.45851,-5.49666 5.49666,-5.49666 3.0381599,0 5.4966699,2.45851 5.4966699,5.49666 0,3.03816 -2.45851,5.49667 -5.4966699,5.49667 -3.03815,0 -5.49666,-2.45851 -5.49666,-5.49667 z"
     id="path822"
     inkscape:connector-curvature="0" />
  <path
     style="fill:#ffff00;fill-opacity:1;fill-rule:evenodd;stroke:none"
     d="m 40.295283,125.36402 c 0,-3.03815 2.4785,-5.49666 5.49667,-5.49666 3.03816,0 5.49667,2.45851 5.49667,5.49666 0,3.03816 -2.45851,5.49667 -5.49667,5.49667 -3.01817,0 -5.49667,-2.45851 -5.49667,-5.49667 z"
     id="path824"
     inkscape:connector-curvature="0" />
  <path
     style="fill:none;stroke:#ffffff;stroke-width:2.99818301px;stroke-linecap:butt;stroke-linejoin:miter;stroke-miterlimit:8;stroke-dasharray:none;stroke-opacity:1"
     d="m 11.952463,16.689892 c 0,-8.3949105 6.79588,-15.1908005 15.1708,-15.1908005 8.39492,0 15.1908,6.79589 15.1908,15.1908005 0,8.39491 -6.79588,15.19079 -15.1908,15.19079 -8.37492,0 -15.1708,-6.79588 -15.1708,-15.19079"
     id="path826"
     inkscape:connector-curvature="0" />
  <path
     style="fill:none;stroke:#ffffff;stroke-width:2.99818301px;stroke-linecap:butt;stroke-linejoin:miter;stroke-miterlimit:8;stroke-dasharray:none;stroke-opacity:1"
     d="m 21.806493,42.114482 c 0,-2.91823 2.37855,-5.29679 5.31677,-5.29679 v 0 c 2.93822,0 5.31678,2.37856 5.31678,5.29679 v 38.71653 c 0,2.93822 -2.37856,5.31678 -5.31678,5.31678 v 0 c -2.93822,0 -5.31677,-2.37856 -5.31677,-5.31678 z"
     id="path828"
     inkscape:connector-curvature="0" />
  <path
     style="fill:none;stroke:#ffffff;stroke-width:2.99818301px;stroke-linecap:butt;stroke-linejoin:miter;stroke-miterlimit:8;stroke-dasharray:none;stroke-opacity:1"
     d="m 12.452153,91.284682 c 0.75954,-2.83828 3.67778,-4.51726 6.49607,-3.75772 v 0 c 2.83828,0.75954 4.51726,3.67777 3.75772,6.51605 l -8.73471,32.620228 c -0.75954,2.83828 -3.67777,4.51726 -6.5160499,3.75772 v 0 c -2.81829,-0.75954 -4.51726,-3.65778 -3.75772,-6.49606 z"
     id="path830"
     inkscape:connector-curvature="0" />
  <path
     style="fill:none;stroke:#ffffff;stroke-width:2.99818301px;stroke-linecap:butt;stroke-linejoin:miter;stroke-miterlimit:8;stroke-dasharray:none;stroke-opacity:1"
     d="m 42.573903,91.284682 c -0.75954,-2.83828 -3.67777,-4.51726 -6.51605,-3.75772 v 0 c -2.83828,0.75954 -4.51726,3.67777 -3.75772,6.51605 l 8.7347,32.620228 c 0.75954,2.83828 3.67777,4.51726 6.51605,3.75772 v 0 c 2.83828,-0.75954 4.51726,-3.65778 3.75773,-6.49606 z"
     id="path832"
     inkscape:connector-curvature="0" />
  <path
     style="fill:none;stroke:#ffffff;stroke-width:2.99818301px;stroke-linecap:butt;stroke-linejoin:miter;stroke-miterlimit:8;stroke-dasharray:none;stroke-opacity:1"
     d="m 47.530893,41.934592 c -0.75953,-2.83828 -3.65778,-4.51726 -6.49606,-3.75772 v 0 c -2.83828,0.75953 -4.51726,3.67777 -3.75772,6.51605 l 5.41672,20.18776 c 0.75954,2.83828 3.65778,4.51726 6.49606,3.75772 v 0 c 2.83828,-0.75954 4.51726,-3.65778 3.75772,-6.49606 z"
     id="path834"
     inkscape:connector-curvature="0" />
  <path
     style="fill:none;stroke:#ffffff;stroke-width:2.99818301px;stroke-linecap:butt;stroke-linejoin:miter;stroke-miterlimit:8;stroke-dasharray:none;stroke-opacity:1"
     d="m 7.0954031,41.934592 c 0.75954,-2.83828 3.6777699,-4.51726 6.5160499,-3.75772 v 0 c 2.81829,0.75953 4.51726,3.67777 3.75772,6.51605 l -5.41671,20.18776 c -0.75954,2.83828 -3.6777699,4.51726 -6.5160499,3.75772 v 0 c -2.83828,-0.75954 -4.51727005,-3.65778 -3.75773,-6.49606 z"
     id="path836"
     inkscape:connector-curvature="0" />
</svg>
