<svg width="143" height="143" viewBox="0 0 143 143" xmlns="http://www.w3.org/2000/svg">
  <path d="M12.58 0h117.84c3.47 0 6.44 1.23 8.9 3.68a12.12 12.12 0 0 1 3.68 8.9v117.84c0 3.47-1.23 6.44-3.69 8.9a12.12 12.12 0 0 1-8.89 3.68H12.58c-3.47 0-6.44-1.23-8.9-3.69A12.12 12.12 0 0 1 0 130.43V12.58c0-3.47 1.23-6.44 3.68-8.9A12.12 12.12 0 0 1 12.58 0ZM14 72.1a14.1 14.1 0 1 0 28.19 0 14.1 14.1 0 0 0-28.19 0Zm50 0a14.1 14.1 0 1 0 28.19 0 14.1 14.1 0 0 0-28.19 0Zm36 0a14.1 14.1 0 1 0 28.2 0 14.1 14.1 0 0 0-28.2 0Z" fill="#FFF" fill-rule="evenodd"/>
</svg>
