<?xml version="1.0" encoding="utf-8"?>
<svg width="108px" height="35px" viewBox="0 0 108 35" version="1.1" xmlns:xlink="http://www.w3.org/1999/xlink" xmlns="http://www.w3.org/2000/svg">
  <path d="M3.999 0L104.001 0C105.105 0 106.048 0.390503 106.829 1.17139C107.61 1.95227 108 2.89478 108 3.99902L108 17.001C108 18.1053 107.61 19.048 106.829 19.8289C106.048 20.6096 105.105 21 104.001 21L59 21L59 24.8695L77 28L77 33.001C77 33.5531 76.8048 34.0243 76.4145 34.4146C76.0242 34.8048 75.553 35 75.001 35L32.999 35C32.447 35 31.9758 34.8048 31.5855 34.4146C31.1952 34.0243 31 33.5531 31 33.001L31 28L49 24.8695L49 21L3.999 21C2.89471 21 1.95215 20.6096 1.17129 19.8289C0.390434 19.048 7.62939e-06 18.1053 0 17.001L0 3.99902C7.62939e-06 2.89478 0.390434 1.95227 1.17129 1.17139C1.95215 0.390503 2.89471 0 3.999 0L3.999 0ZM36.5 6.00012C34.0147 6.00012 32 8.01489 32 10.5001C32 12.9854 34.0147 15.0001 36.5 15.0001C38.9853 15.0001 41 12.9854 41 10.5001C41 8.01489 38.9853 6.00012 36.5 6.00012L36.5 6.00012ZM53 10.5001C53 8.01489 55.0147 6.00012 57.5 6.00012C59.9853 6.00012 62 8.01489 62 10.5001C62 12.9854 59.9853 15.0001 57.5 15.0001C55.0147 15.0001 53 12.9854 53 10.5001L53 10.5001ZM72.5 6.00012C70.0147 6.00012 68 8.01489 68 10.5001C68 12.9854 70.0147 15.0001 72.5 15.0001C74.9853 15.0001 77 12.9854 77 10.5001C77 8.01489 74.9853 6.00012 72.5 6.00012L72.5 6.00012Z" id="Vector-11" fill="#FFFFFF" fill-rule="evenodd" stroke="none" />
</svg>