<?xml version="1.0" encoding="utf-8"?>
<svg width="143px" height="155px" viewBox="0 0 143 155" version="1.1" xmlns:xlink="http://www.w3.org/1999/xlink" xmlns="http://www.w3.org/2000/svg">
  <path d="M92.1941 14.4916C92.1941 6.48811 98.6822 0 106.686 0C114.689 0 121.177 6.48811 121.177 14.4916C121.177 22.495 114.689 28.9831 106.686 28.9831C98.6822 28.9831 92.1941 22.495 92.1941 14.4916L92.1941 14.4916ZM30.8934 38.9448L52.9758 23.7632C53.8584 23.1565 54.8258 22.7546 55.8783 22.5574C56.9311 22.3602 57.9785 22.3846 59.0207 22.6306L83.8634 28.4963C84.2969 28.5986 84.7182 28.7381 85.1273 28.9146C85.5363 29.0912 85.9267 29.3021 86.2985 29.5474L102.515 40.2435C103.112 40.637 103.642 41.1053 104.106 41.6485C104.57 42.1917 104.95 42.7886 105.246 43.439L113.827 62.3175L135.802 64.9198C136.802 65.0382 137.741 65.3433 138.619 65.8352C139.497 66.3271 140.248 66.9683 140.871 67.7589C141.494 68.5494 141.943 69.4291 142.216 70.3979C142.489 71.3667 142.566 72.351 142.448 73.3506C142.201 75.4322 141.255 77.1218 139.608 78.4194C137.962 79.717 136.098 80.2426 134.017 79.9961L107.794 76.8907C106.476 76.7346 105.281 76.2649 104.209 75.4817C103.137 74.6984 102.326 73.7024 101.777 72.4937L97.057 62.1106L94.9721 57.5239L77.3441 84.6687L99.4824 99.6384C100.934 100.62 101.926 101.945 102.46 103.613C102.994 105.282 102.955 106.937 102.343 108.579L87.1613 149.293C86.4288 151.257 85.1093 152.675 83.2026 153.546C81.296 154.417 79.3605 154.486 77.3966 153.753C76.4533 153.402 75.6133 152.883 74.8766 152.197C74.1398 151.511 73.5623 150.711 73.144 149.795C72.7258 148.879 72.4987 147.919 72.4628 146.913C72.4268 145.907 72.5846 144.932 72.9362 143.989L76.2899 134.995L86.0315 108.87L62.7846 93.1503L54.7495 87.7171C53.013 86.5429 51.9459 84.9268 51.5483 82.8687C51.1505 80.8107 51.5389 78.9134 52.7133 77.1769C52.7706 77.0923 52.8289 77.0092 52.8882 76.9277L52.7908 76.8644L75.3731 42.0907L58.8052 38.1789L44.781 47.8207L39.4944 51.4551C37.767 52.6427 35.8729 53.0456 33.8116 52.6639C31.7504 52.2822 30.1262 51.2277 28.9388 49.5004C28.3685 48.6709 27.9786 47.7638 27.7692 46.7793C27.5598 45.7947 27.5466 44.8075 27.7298 43.8178C27.9131 42.828 28.2787 41.911 28.8267 41.0667C29.3749 40.2224 30.0638 39.5151 30.8934 38.9448L30.8934 38.9448ZM36.2192 103.856L44.7572 92.424C45.8979 93.8832 47.2957 95.1725 48.9512 96.2918L56.8355 101.623L46.1063 115.989C45.3898 116.949 44.4964 117.697 43.426 118.233C42.3555 118.77 41.2217 119.038 40.0243 119.038L7.59082 119.038C5.49449 119.038 3.70528 118.297 2.22303 116.815C0.740954 115.332 -0.000168475 113.543 0 111.447C-0.000168475 109.351 0.740954 107.562 2.22303 106.08C3.70528 104.597 5.49449 103.856 7.59082 103.856L36.2192 103.856L36.2192 103.856Z" id="Vector-14" fill="#FFFFFF" fill-rule="evenodd" stroke="none" />
</svg>