<?xml version="1.0" encoding="utf-8"?>
<svg width="117px" height="55px" viewBox="0 0 117 55" version="1.1" xmlns:xlink="http://www.w3.org/1999/xlink" xmlns="http://www.w3.org/2000/svg">
  <path d="M0.460524 7.47534C0.460524 3.34669 3.80746 -0.000244141 7.93611 -0.000244141C12.0647 -0.000244141 15.4117 3.34669 15.4117 7.47534C15.4117 10.1387 14.0189 12.4767 11.9219 13.8008L14.2618 13.8008C14.3888 13.8008 14.4971 13.8437 14.5869 13.9293C14.6767 14.015 14.7216 14.1184 14.7216 14.2395L14.7216 14.6786L14.7194 14.6786C12.9307 31.0224 15.1466 48.323 15.5858 51.476C15.5893 51.5014 15.5911 51.5263 15.5913 51.5507C15.6246 51.8438 15.6417 52.1418 15.6417 52.4438C15.6417 56.763 12.1403 60.2644 7.8211 60.2644C3.50192 60.2644 0.000488281 56.763 0.000488281 52.4438C0.000488281 52.142 0.0176161 51.8441 0.0508609 51.5512C0.0510293 51.5267 0.0528263 51.5016 0.0564204 51.476C0.495566 48.323 2.71145 31.0224 0.92275 14.6786L0.92056 14.6786L0.92056 14.2395C0.920504 14.1184 0.965429 14.015 1.05522 13.9293C1.14496 13.8437 1.25334 13.8008 1.38037 13.8008L3.95027 13.8008C1.85332 12.4767 0.460524 10.1387 0.460524 7.47534L0.460524 7.47534ZM9.88983 20.6998C9.88978 20.1282 9.68767 19.6403 9.28345 19.2362C8.87913 18.832 8.39112 18.6299 7.81945 18.6299C7.24783 18.6299 6.75994 18.832 6.35572 19.2362C5.95156 19.6403 5.74951 20.1282 5.74951 20.6998L5.74951 24.8406C5.74951 25.4122 5.95156 25.9001 6.35572 26.3043C6.75994 26.7084 7.24783 26.9105 7.81945 26.9105C8.39112 26.9105 8.87913 26.7084 9.28345 26.3043C9.68767 25.9001 9.88978 25.4122 9.88983 24.8406L9.88983 20.6998L9.88983 20.6998ZM9.89179 32.4339C9.89173 31.8622 9.68962 31.3742 9.28541 30.9699C8.88108 30.5657 8.39308 30.3635 7.8214 30.3635C7.24978 30.3635 6.76189 30.5656 6.35768 30.9698C5.95352 31.374 5.75146 31.8619 5.75146 32.4335C5.75146 33.0052 5.95352 33.4932 6.35768 33.8974C6.76189 34.3017 7.24978 34.5038 7.8214 34.5038C8.39308 34.5038 8.88108 34.3018 9.28541 33.8976C9.68962 33.4934 9.89173 33.0055 9.89179 32.4339L9.89179 32.4339Z" transform="matrix(0.7193398 0.6946584 -0.6946584 0.7193398 41.86328 0)" id="Vector-12" fill="#FFFFFF" fill-rule="evenodd" stroke="none" />
  <path d="M52.0273 0L2.97273 0C2.15176 0 1.4511 0.290224 0.870625 0.870686C0.290148 1.45115 -6.04853e-05 2.15182 0 2.97273L0 12.8831C-6.04853e-05 13.704 0.290148 14.4047 0.870625 14.9852C1.4511 15.5656 2.15176 15.8558 2.97273 15.8559L17.0766 15.8559C16.608 17.0875 16.3514 18.4237 16.3514 19.8198C16.3514 23.9973 18.649 27.6382 22.0495 29.5476L22.0495 34.4369L9.66216 34.4369L9.66216 41.8694L45.5856 41.8694L45.5856 34.4369L32.9504 34.4369L32.9504 29.5476C36.351 27.6382 38.6486 23.9973 38.6486 19.8198C38.6486 18.4237 38.392 17.0875 37.9234 15.8559L52.0273 15.8559C52.8481 15.8558 53.5488 15.5656 54.1293 14.9852C54.7097 14.4047 54.9999 13.704 55 12.8831L55 2.97273C54.9999 2.15182 54.7097 1.45115 54.1293 0.870686C53.5488 0.290224 52.8481 0 52.0273 0L52.0273 0ZM23.1207 24.1995C21.9113 22.9901 21.3066 21.5303 21.3066 19.8199C21.3066 18.1096 21.9113 16.6497 23.1207 15.4403C24.3301 14.2309 25.79 13.6262 27.5003 13.6262C29.2107 13.6262 30.6705 14.2309 31.8799 15.4403C33.0894 16.6497 33.694 18.1096 33.694 19.8199C33.694 21.5303 33.0894 22.9901 31.8799 24.1995C30.6705 25.4089 29.2107 26.0136 27.5003 26.0136C25.79 26.0136 24.3301 25.4089 23.1207 24.1995L23.1207 24.1995Z" transform="translate(61.248047 7.517578)" id="Vector-13" fill="#FFFFFF" fill-rule="evenodd" stroke="none" />
</svg>