<?xml version="1.0" encoding="utf-8"?>
<svg width="92px" height="86px" viewBox="0 0 92 86" version="1.1" xmlns:xlink="http://www.w3.org/1999/xlink" xmlns="http://www.w3.org/2000/svg">
  <path d="M90.0063 15.5013L91.1391 17.103L91.1391 69.3406L90.4675 69.8156L90.4675 70.5557L46.3526 85.6324L45.254 85.6324L2.57309 71.0458L2.2647 71.1547L1.6782 70.7399L1.13916 70.5557L1.13916 70.3587L0 69.553L0 17.3154L1.13287 15.7137L45.0038 0.212402L45.4194 0.506322L46.1353 0L90.0063 15.5013ZM47.2685 52.5771L47.2685 4.00383L87.7415 18.3045L87.7415 66.4091L74.8742 62.0116L74.8742 34.5485L73.7189 32.939L58.8546 27.9196L56.6123 29.529L56.6123 55.7704L47.2685 52.5771ZM71.4765 60.8504L60.0098 56.9315L60.0098 31.8956L71.4765 35.7678L71.4765 60.8504ZM3.39746 66.5689L43.8706 52.7368L43.8706 4.21616L3.39746 18.5169L3.39746 66.5689ZM34.3167 17.4551L12.1749 25.2786L11.042 26.8803L11.042 53.2447L13.3067 54.8465L35.4485 47.0229L36.5814 45.4212L36.5814 19.0568L34.3167 17.4551ZM14.4395 28.0818L14.4395 50.8428L33.1837 44.2197L33.1837 21.4587L14.4395 28.0818ZM83.9365 69.1976L45.8701 55.7472L7.73857 69.2206L45.8038 82.2298L83.9365 69.1976Z" id="Vector-Union-5" fill="#FFFFFF" fill-rule="evenodd" stroke="none" />
</svg>