<?xml version="1.0" encoding="utf-8"?>
<svg width="243px" height="159px" viewBox="0 0 243 159" version="1.1" xmlns:xlink="http://www.w3.org/1999/xlink" xmlns="http://www.w3.org/2000/svg">
  <path d="M81 0L0 0L0 159L81 159L81 0L81 0ZM10 24L10 12L69 12L69 24L10 24L10 24ZM243 34.5L93 34.5L93 135.5L162.5 135.5L162.5 147L139 147L139 159L198 159L198 147L174.5 147L174.5 135.5L243 135.5L243 34.5L243 34.5ZM10 48L10 36L69 36L69 48L10 48L10 48ZM105 123.5L105 46.5L231 46.5L231 123.5L105 123.5L105 123.5ZM57 72L57 60L69 60L69 72L57 72L57 72ZM150.875 81.6475L153.305 83.7024L165.123 93.6992L179.722 73.1179L188.577 60.6348L198.365 67.5776L167.351 111.301L138.544 86.9348L146.294 77.7727L150.875 81.6475L150.875 81.6475Z" id="Vector" fill="#FFFFFF" fill-rule="evenodd" stroke="none" />
</svg>