<?xml version="1.0" encoding="utf-8"?>
<svg width="116px" height="64px" viewBox="0 0 116 64" version="1.1" xmlns:xlink="http://www.w3.org/1999/xlink" xmlns="http://www.w3.org/2000/svg">
  <path d="M45.8223 7.14903L45.8223 8.44959L70.521 8.44955L70.521 7.14899C70.5206 5.17485 69.8228 3.4898 68.427 2.09386C67.0309 0.697967 65.346 0 63.372 0L52.9713 3.96708e-05C52.0233 3.96708e-05 51.1112 0.181454 50.2356 0.544243C49.3596 0.907032 48.5865 1.42358 47.9162 2.09394C47.2457 2.76426 46.7293 3.53736 46.3665 4.41325C46.0038 5.28906 45.8223 6.20101 45.8223 7.14903L45.8223 7.14903ZM91.6454 14.2992L24.0477 14.2992C21.3555 14.2992 19.0577 15.251 17.1542 17.1546C15.2506 19.0581 14.2988 21.356 14.2988 24.0481L14.2988 53.9478C14.2988 56.6398 15.2506 58.9376 17.1539 60.8412C19.0577 62.7448 21.3555 63.6966 24.0477 63.6966L49.1336 63.6966L54.8706 54.2414C55.2241 53.6589 55.6976 53.2005 56.2914 52.8663C56.8849 52.532 57.5225 52.3649 58.2039 52.3649C58.8856 52.3649 59.5232 52.532 60.117 52.8663C60.7108 53.2005 61.1843 53.6589 61.5375 54.2414L67.2745 63.6966L91.6454 63.6966C94.3373 63.6966 96.635 62.7448 98.5382 60.8412C100.442 58.9376 101.394 56.6398 101.394 53.9478L101.394 24.0481C101.394 21.356 100.442 19.0581 98.5389 17.1546C96.635 15.251 94.3373 14.2992 91.6454 14.2992L91.6454 14.2992ZM8.44955 25.9987L7.14899 25.9987C5.17465 25.9987 3.48976 26.6966 2.09366 28.0925C0.697571 29.4884 -0.000317366 31.1735 0 33.1477L0 43.5484C-0.000317366 45.5225 0.697571 47.2075 2.09366 48.6034C3.48976 49.9994 5.17465 50.6973 7.14899 50.6974L8.44955 50.6974L8.44955 25.9987L8.44955 25.9987ZM107.244 25.9987L107.244 50.6974L108.545 50.6974C110.519 50.6973 112.204 49.9994 113.599 48.6034C114.995 47.2075 115.693 45.5225 115.694 43.5484L115.694 33.1477C115.693 31.1735 114.995 29.4884 113.599 28.0925C112.204 26.6966 110.519 25.9987 108.545 25.9987L107.244 25.9987L107.244 25.9987Z" id="Vector-14" fill="#FFFFFF" fill-rule="evenodd" stroke="none" />
</svg>