<?xml version="1.0" encoding="UTF-8" standalone="no"?>
<svg
   xmlns:dc="http://purl.org/dc/elements/1.1/"
   xmlns:cc="http://creativecommons.org/ns#"
   xmlns:rdf="http://www.w3.org/1999/02/22-rdf-syntax-ns#"
   xmlns:svg="http://www.w3.org/2000/svg"
   xmlns="http://www.w3.org/2000/svg"
   xmlns:sodipodi="http://sodipodi.sourceforge.net/DTD/sodipodi-0.dtd"
   xmlns:inkscape="http://www.inkscape.org/namespaces/inkscape"
   version="1.0"
   width="8.4245186mm"
   height="7.2663445mm"
   id="svg822"
   sodipodi:docname="warning.svg"
   inkscape:version="0.92.4 (5da689c313, 2019-01-14)">
  <metadata
     id="metadata826">
    <rdf:RDF>
      <cc:Work
         rdf:about="">
        <dc:format>image/svg+xml</dc:format>
        <dc:type
           rdf:resource="http://purl.org/dc/dcmitype/StillImage" />
        <dc:title></dc:title>
      </cc:Work>
    </rdf:RDF>
  </metadata>
  <sodipodi:namedview
     pagecolor="#ffffff"
     bordercolor="#666666"
     borderopacity="1"
     objecttolerance="10"
     gridtolerance="10"
     guidetolerance="10"
     inkscape:pageopacity="0"
     inkscape:pageshadow="2"
     inkscape:window-width="1920"
     inkscape:window-height="1017"
     id="namedview824"
     showgrid="false"
     inkscape:zoom="1.1267189"
     inkscape:cx="417.75771"
     inkscape:cy="66.767899"
     inkscape:window-x="1912"
     inkscape:window-y="-8"
     inkscape:window-maximized="1"
     inkscape:current-layer="svg822" />
  <defs
     id="defs816">
    <pattern
       id="EMFhbasepattern"
       patternUnits="userSpaceOnUse"
       width="6"
       height="6"
       x="0"
       y="0" />
  </defs>
  <path
     style="fill:#ffff00;fill-opacity:1;fill-rule:evenodd;stroke:none"
     d="m 15.79043,20.18776 c -1.23925,0 -2.21866,0.9994 -2.21866,2.21866 0,1.21926 0.97941,2.21865 2.21866,2.21865 1.21926,0 2.21865,-0.99939 2.21865,-2.21865 0,-1.21926 -0.99939,-2.21866 -2.21865,-2.21866 z m 0,-12.93216 c -1.23925,0 -2.21866,0.9994 -2.21866,2.21866 v 7.03573 c 0,1.21926 0.97941,2.21866 2.21866,2.21866 1.21926,0 2.21865,-0.9994 2.21865,-2.21866 V 9.47426 C 18.00908,8.255 17.00969,7.2556 15.79043,7.2556 Z M 15.91036,0 31.8407,27.46335 H 0 Z"
     id="path820"
     inkscape:connector-curvature="0" />
</svg>
