<?xml version="1.0" encoding="utf-8"?>
<svg width="300px" height="423px" viewBox="0 0 300 423" version="1.1" xmlns:xlink="http://www.w3.org/1999/xlink" xmlns="http://www.w3.org/2000/svg">
  <path d="M150 0C31.5 0 0 30.45 0 145C0 252.466 27.7244 285.912 129 289.638L129 319.837L21 355L22.999 355C19.1333 355 15.8337 356.367 13.1002 359.1Q8.99995 363.201 9 368.999L9 400.001C8.99997 406.352 11.2454 411.773 15.7362 416.264C20.2271 420.755 25.648 423 31.999 423L268.001 423C274.352 423 279.773 420.755 284.264 416.264C288.755 411.773 291 406.352 291 400.001L291 368.999Q291 363.201 286.9 359.1C284.166 356.367 280.867 355 277.001 355L279 355L172 320.163L172 289.6C272.458 285.691 300 252.111 300 145C300 30.45 268.5 0 150 0ZM67 145C67 99.1604 104.16 62 150 62C195.84 62 233 99.1604 233 145C233 190.84 195.84 228 150 228C104.16 228 67 190.84 67 145ZM82 145C82 163.778 88.6389 179.805 101.917 193.083Q121.834 213 150 213C168.778 213 184.805 206.361 198.083 193.083C211.361 179.806 218 163.778 218 145C218 126.222 211.361 110.194 198.083 96.9167C184.805 83.639 168.778 77.0001 150 77Q121.834 76.9998 101.917 96.9167C88.6389 110.195 82 126.222 82 145ZM109 145C109 122.356 127.356 104 150 104C172.644 104 191 122.356 191 145C191 167.644 172.644 186 150 186C127.356 186 109 167.644 109 145Z" id="Shape-Difference-Difference-Union" fill="#FFFFFF" fill-rule="evenodd" stroke="none" />
</svg>