<?xml version="1.0" encoding="utf-8"?>
<svg width="505px" height="505px" viewBox="0 0 505 505" version="1.1" xmlns:xlink="http://www.w3.org/1999/xlink" xmlns="http://www.w3.org/2000/svg">
  <path d="M133 0C27.93 0 0 26.999 0 128.567C0 223.853 24.5823 253.509 114.38 256.812L114.38 283.589L18.62 314.767L20.3924 314.767C16.9648 314.767 14.0392 315.979 11.6155 318.402C9.19179 320.826 7.97995 323.752 7.97998 327.179L7.97998 354.667C7.97995 360.299 9.97089 365.105 13.9527 369.087C17.9346 373.069 22.7412 375.06 28.3724 375.06L237.627 375.06C243.259 375.06 248.065 373.069 252.047 369.087C256.029 365.105 258.02 360.299 258.02 354.667L258.02 327.179C258.02 323.752 256.808 320.826 254.384 318.402C251.961 315.979 249.035 314.767 245.607 314.767L247.38 314.767L152.507 283.878L152.507 256.779C241.58 253.312 266 223.539 266 128.567C266 26.999 238.07 0 133 0ZM59.4066 128.566C59.4066 87.922 92.3555 54.9731 133 54.9731C173.644 54.9731 206.593 87.922 206.593 128.566C206.593 169.211 173.644 202.16 133 202.16C92.3555 202.16 59.4066 169.211 59.4066 128.566ZM72.7067 128.566C72.7067 145.216 78.5932 159.427 90.3662 171.2Q108.026 188.86 133 188.86Q157.974 188.86 175.634 171.2C187.407 159.427 193.293 145.216 193.293 128.566C193.293 111.917 187.407 97.7054 175.634 85.9325Q157.974 68.2731 133 68.2729Q108.026 68.2728 90.3662 85.9325C78.5932 97.7055 72.7067 111.917 72.7067 128.566ZM96.6467 128.567C96.6467 108.489 112.923 92.2134 133 92.2134C153.077 92.2134 169.353 108.489 169.353 128.567C169.353 148.644 153.077 164.92 133 164.92C112.923 164.92 96.6467 148.644 96.6467 128.567Z" transform="translate(119.99988 63.93994)" id="Shape-Difference-Difference-Union-2" fill="#FFFFFF" fill-rule="evenodd" stroke="none" />
  <path d="M0 252.5C0 113.048 113.048 0 252.5 0C391.952 0 505 113.048 505 252.5C505 391.952 391.952 505 252.5 505C113.048 505 0 391.952 0 252.5ZM50 252.5C50 279.988 55.2977 306.257 65.8929 331.307C76.1375 355.528 90.6102 376.989 109.311 395.689Q137.362 423.741 173.693 439.107C198.743 449.702 225.012 455 252.5 455C279.987 455 306.256 449.702 331.307 439.107C347.71 432.169 362.848 423.292 376.72 412.475L92.5251 128.28C81.7084 142.152 72.8311 157.29 65.8929 173.693C55.2977 198.743 50 225.012 50 252.5ZM127.832 92.8761L412.124 377.168C423.1 363.175 432.094 347.888 439.107 331.307C449.702 306.257 455 279.988 455 252.5C455 225.012 449.702 198.743 439.107 173.693C428.862 149.472 414.39 128.011 395.689 109.311C376.988 90.6101 355.528 76.1375 331.307 65.8931C306.256 55.2976 279.987 50 252.5 50C225.013 50 198.744 55.2976 173.693 65.8931C157.113 72.906 141.825 81.9003 127.832 92.8761Z" id="Vector-Union" fill="#FB1459" fill-rule="evenodd" stroke="none" />
</svg>